<?xml version="1.0" encoding="UTF-8" standalone="no"?>
<svg
   xmlns:dc="http://purl.org/dc/elements/1.1/"
   xmlns:cc="http://creativecommons.org/ns#"
   xmlns:rdf="http://www.w3.org/1999/02/22-rdf-syntax-ns#"
   xmlns:svg="http://www.w3.org/2000/svg"
   xmlns="http://www.w3.org/2000/svg"
   xmlns:sodipodi="http://sodipodi.sourceforge.net/DTD/sodipodi-0.dtd"
   xmlns:inkscape="http://www.inkscape.org/namespaces/inkscape"
   version="1.1"
   viewBox="0 0 512 512"
   enable-background="new 0 0 512 512"
   id="svg2"
   inkscape:version="0.91 r13725"
   sodipodi:docname="editPencilSLKJSDLFK.svg">
  <metadata
     id="metadata14">
    <rdf:RDF>
      <cc:Work
         rdf:about="">
        <dc:format>image/svg+xml</dc:format>
        <dc:type
           rdf:resource="http://purl.org/dc/dcmitype/StillImage" />
        <dc:title></dc:title>
      </cc:Work>
    </rdf:RDF>
  </metadata>
  <defs
     id="defs12" />
  <sodipodi:namedview
     pagecolor="#ffffff"
     bordercolor="#666666"
     borderopacity="1"
     objecttolerance="10"
     gridtolerance="10"
     guidetolerance="10"
     inkscape:pageopacity="0"
     inkscape:pageshadow="2"
     inkscape:window-width="1146"
     inkscape:window-height="660"
     id="namedview10"
     showgrid="false"
     inkscape:zoom="0.41986485"
     inkscape:cx="402.01816"
     inkscape:cy="93.700472"
     inkscape:window-x="77"
     inkscape:window-y="52"
     inkscape:window-maximized="0"
     inkscape:current-layer="svg2" />
  <g
     id="g4"
     style="fill:#808080">
    <g
       id="g6"
       style="fill:#808080">
      <path
         d="m 179.2,414.29165 -77.3,-77.4 272.5,-272.9 77.3,77.4 -272.5,272.9 z m -96,-38.3 56.9,57 -79.2,22.3 22.3,-79.3 z m 411.8,-249 -106.2,-106.4 c -7.7,-7.7 -21.2,-7.7 -28.9,0 l -301.3,301.8 c -2.5,2.5 -4.3,5.5 -5.2,8.9 l -41.6,148 c -2,7.1 0,14.8 5.2,20 3.9,3.9 11.7,6.7 20,5.2 l 147.8,-41.7 c 3.4,-0.9 6.4,-2.7 8.9,-5.2 l 301.3,-301.7 c 8,-8 8,-20.9 0,-28.9 z"
         id="path8"
         inkscape:connector-curvature="0"
         style="fill:#808080" />
    </g>
  </g>
  <path
     inkscape:connector-curvature="0"
     d="m 127.05472,95.393304 c -9.02322,-9.02322 -23.92947,-9.02322 -33.344527,0 -9.02324,9.023226 -9.02324,23.929486 0,33.344536 96.517837,95.96769 192.813007,192.15848 289.121307,288.33628 4.70753,4.70753 10.59194,7.0613 16.47636,7.0613 5.88442,0 12.16066,-2.35377 16.47635,-7.0613 9.02325,-9.02323 9.02325,-23.92949 0,-33.34454 C 319.68386,287.47442 223.36285,191.44039 127.05472,95.393304 Z"
     id="path4425"
     sodipodi:nodetypes="ccccsccc" />
  <g
     transform="matrix(0.98167789,0,0,0.98167789,700.93531,-0.36946068)"
     id="g4486">
    <g
       id="g4488">
      <g
         id="g4490">
        <path
           inkscape:connector-curvature="0"
           d="m 133.45,365.783 c 3.4,3.4 7.65,5.1 11.9,5.1 4.25,0 8.783,-1.7 11.9,-5.1 l 92.367,-92.367 92.367,92.367 c 3.4,3.4 7.65,5.1 11.9,5.1 4.25,0 8.783,-1.7 11.9,-5.1 6.517,-6.517 6.517,-17.283 0,-24.083 L 273.7,249.617 365.783,157.25 c 6.517,-6.517 6.517,-17.283 0,-24.083 -6.517,-6.8 -17.283,-6.517 -24.083,0 L 249.617,225.534 157.25,133.45 c -6.517,-6.517 -17.283,-6.517 -24.083,0 -6.517,6.517 -6.517,17.283 0,24.083 l 92.367,92.083 -92.083,92.367 c -6.801,6.517 -6.801,17.284 -0.001,23.8 z"
           id="path4492" />
        <path
           inkscape:connector-curvature="0"
           d="m 249.617,499.233 c 137.7,0 249.617,-111.917 249.617,-249.617 C 499.234,111.916 387.317,0 249.617,0 111.917,0 0,111.917 0,249.617 c 0,137.7 111.917,249.616 249.617,249.616 z m 0,-465.233 c 119,0 215.617,96.617 215.617,215.617 0,119 -96.617,215.617 -215.617,215.617 C 130.617,465.234 34,368.617 34,249.617 34,130.617 130.617,34 249.617,34 Z"
           id="path4494" />
      </g>
    </g>
    <g
       id="g4496" />
    <g
       id="g4498" />
    <g
       id="g4500" />
    <g
       id="g4502" />
    <g
       id="g4504" />
    <g
       id="g4506" />
    <g
       id="g4508" />
    <g
       id="g4510" />
    <g
       id="g4512" />
    <g
       id="g4514" />
    <g
       id="g4516" />
    <g
       id="g4518" />
    <g
       id="g4520" />
    <g
       id="g4522" />
    <g
       id="g4524" />
  </g>
</svg>
